<svg width="64" height="64" viewBox="0 0 64 64" fill="none" xmlns="http://www.w3.org/2000/svg">
  <rect x="12" y="2" width="40" height="40" rx="16" fill="url(#paint0_linear_1_5)"/>
  <g filter="url(#filter0_dd_1_5)">
    <rect x="12" y="2" width="40" height="40" rx="16" fill="white" fill-opacity="0.01" shape-rendering="crispEdges"/>
  </g>
  <path d="M32 31L25 27.2V21.2L21 19L32 13L43 19V27H41V20.1L39 21.2V27.2L32 31ZM32 22.7L38.85 19L32 15.3L25.15 19L32 22.7ZM32 28.725L37 26.025V22.25L32 25L27 22.25V26.025L32 28.725Z" fill="white"/>
  <defs>
    <filter id="filter0_dd_1_5" x="0" y="0" width="64" height="64" filterUnits="userSpaceOnUse" color-interpolation-filters="sRGB">
      <feFlood flood-opacity="0" result="BackgroundImageFix"/>
      <feColorMatrix in="SourceAlpha" type="matrix" values="0 0 0 0 0 0 0 0 0 0 0 0 0 0 0 0 0 0 127 0" result="hardAlpha"/>
      <feMorphology radius="4" operator="erode" in="SourceAlpha" result="effect1_dropShadow_1_5"/>
      <feOffset dy="4"/>
      <feGaussianBlur stdDeviation="3"/>
      <feComposite in2="hardAlpha" operator="out"/>
      <feColorMatrix type="matrix" values="0 0 0 0 0.309804 0 0 0 0 0.27451 0 0 0 0 0.898039 0 0 0 0.2 0"/>
      <feBlend mode="normal" in2="BackgroundImageFix" result="effect1_dropShadow_1_5"/>
      <feColorMatrix in="SourceAlpha" type="matrix" values="0 0 0 0 0 0 0 0 0 0 0 0 0 0 0 0 0 0 127 0" result="hardAlpha"/>
      <feMorphology radius="3" operator="erode" in="SourceAlpha" result="effect2_dropShadow_1_5"/>
      <feOffset dy="10"/>
      <feGaussianBlur stdDeviation="7.5"/>
      <feComposite in2="hardAlpha" operator="out"/>
      <feColorMatrix type="matrix" values="0 0 0 0 0.309804 0 0 0 0 0.27451 0 0 0 0 0.898039 0 0 0 0.2 0"/>
      <feBlend mode="normal" in2="effect1_dropShadow_1_5" result="effect2_dropShadow_1_5"/>
      <feBlend mode="normal" in="SourceGraphic" in2="effect2_dropShadow_1_5" result="shape"/>
    </filter>
    <linearGradient id="paint0_linear_1_5" x1="12" y1="2" x2="52" y2="42" gradientUnits="userSpaceOnUse">
      <stop stop-color="#4F46E5"/>
      <stop offset="1" stop-color="#4338CA"/>
    </linearGradient>
  </defs>
</svg>
