<svg width="17" height="17" viewBox="0 0 17 17" fill="none" xmlns="http://www.w3.org/2000/svg">
<path d="M8.45749 13.6C8.75499 13.6 9.00645 13.4973 9.21186 13.2919C9.41728 13.0864 9.51999 12.835 9.51999 12.5375C9.51999 12.24 9.41728 11.9885 9.21186 11.7831C9.00645 11.5777 8.75499 11.475 8.45749 11.475C8.15999 11.475 7.90853 11.5777 7.70312 11.7831C7.4977 11.9885 7.39499 12.24 7.39499 12.5375C7.39499 12.835 7.4977 13.0864 7.70312 13.2919C7.90853 13.4973 8.15999 13.6 8.45749 13.6ZM7.69249 10.3275H9.26499C9.26499 9.85999 9.31811 9.49166 9.42436 9.22249C9.53061 8.95332 9.83166 8.58499 10.3275 8.11749C10.6958 7.74916 10.9862 7.39853 11.1987 7.06562C11.4112 6.7327 11.5175 6.33249 11.5175 5.86499C11.5175 5.07166 11.2271 4.46249 10.6462 4.03749C10.0654 3.6125 9.37832 3.4 8.58499 3.4C7.77749 3.4 7.12228 3.6125 6.61937 4.03749C6.11645 4.46249 5.76583 4.97249 5.56749 5.56749L6.96999 6.11999C7.04083 5.86499 7.2002 5.58874 7.44812 5.29124C7.69603 4.99374 8.07499 4.84499 8.58499 4.84499C9.03832 4.84499 9.37832 4.96895 9.60499 5.21687C9.83166 5.46478 9.94499 5.73749 9.94499 6.03499C9.94499 6.31833 9.85999 6.58395 9.68999 6.83187C9.51999 7.07978 9.30749 7.30999 9.05249 7.52249C8.42916 8.07499 8.04666 8.49291 7.90499 8.77624C7.76332 9.05957 7.69249 9.57666 7.69249 10.3275ZM8.49999 17C7.32416 17 6.21916 16.7769 5.18499 16.3306C4.15083 15.8844 3.25125 15.2787 2.48625 14.5137C1.72125 13.7487 1.11562 12.8492 0.669374 11.815C0.223125 10.7808 0 9.67582 0 8.49999C0 7.32416 0.223125 6.21916 0.669374 5.18499C1.11562 4.15083 1.72125 3.25125 2.48625 2.48625C3.25125 1.72125 4.15083 1.11562 5.18499 0.669374C6.21916 0.223125 7.32416 0 8.49999 0C9.67582 0 10.7808 0.223125 11.815 0.669374C12.8492 1.11562 13.7487 1.72125 14.5137 2.48625C15.2787 3.25125 15.8844 4.15083 16.3306 5.18499C16.7769 6.21916 17 7.32416 17 8.49999C17 9.67582 16.7769 10.7808 16.3306 11.815C15.8844 12.8492 15.2787 13.7487 14.5137 14.5137C13.7487 15.2787 12.8492 15.8844 11.815 16.3306C10.7808 16.7769 9.67582 17 8.49999 17ZM8.49999 15.3C10.3983 15.3 12.0062 14.6412 13.3237 13.3237C14.6412 12.0062 15.3 10.3983 15.3 8.49999C15.3 6.60166 14.6412 4.99374 13.3237 3.67625C12.0062 2.35875 10.3983 1.7 8.49999 1.7C6.60166 1.7 4.99374 2.35875 3.67625 3.67625C2.35875 4.99374 1.7 6.60166 1.7 8.49999C1.7 10.3983 2.35875 12.0062 3.67625 13.3237C4.99374 14.6412 6.60166 15.3 8.49999 15.3Z" fill="#64748B"/>
</svg>
