<svg width="242" height="64" viewBox="0 0 242 64" fill="none" xmlns="http://www.w3.org/2000/svg">
<rect x="12" y="2" width="40" height="40" rx="16" fill="url(#paint0_linear_1_5)"/>
<g filter="url(#filter0_dd_1_5)">
<rect x="12" y="2" width="40" height="40" rx="16" fill="white" fill-opacity="0.01" shape-rendering="crispEdges"/>
</g>
<path d="M32 31L25 27.2V21.2L21 19L32 13L43 19V27H41V20.1L39 21.2V27.2L32 31ZM32 22.7L38.85 19L32 15.3L25.15 19L32 22.7ZM32 28.725L37 26.025V22.25L32 25L27 22.25V26.025L32 28.725Z" fill="white"/>
<path d="M70.075 21.716C69.232 21.716 68.4468 21.5608 67.7192 21.2502C66.9917 20.9398 66.3677 20.5048 65.8472 19.9453C65.3267 19.3857 64.942 18.7355 64.693 17.9945L66.7315 17.1035C67.0615 17.8805 67.5317 18.4858 68.1422 18.9193C68.7527 19.3528 69.442 19.5695 70.21 19.5695C70.642 19.5695 71.0163 19.5013 71.3328 19.3647C71.6493 19.2283 71.896 19.0393 72.073 18.7978C72.25 18.5563 72.3385 18.272 72.3385 17.945C72.3385 17.546 72.2215 17.2183 71.9875 16.9618C71.7535 16.7053 71.3995 16.5035 70.9255 16.3565L68.3515 15.5285C67.3135 15.1985 66.5282 14.7117 65.9958 14.0683C65.4633 13.4247 65.197 12.662 65.197 11.78C65.197 11.009 65.3868 10.3302 65.7663 9.74375C66.1458 9.15725 66.6745 8.699 67.3525 8.369C68.0305 8.039 68.8075 7.874 69.6835 7.874C70.4875 7.874 71.2262 8.01425 71.8997 8.29475C72.5732 8.57525 73.1523 8.9645 73.6367 9.4625C74.1212 9.9605 74.482 10.5485 74.719 11.2265L72.703 12.122C72.442 11.456 72.0468 10.9393 71.5173 10.5718C70.9877 10.2042 70.378 10.0205 69.688 10.0205C69.28 10.0205 68.9193 10.088 68.6057 10.223C68.2923 10.358 68.05 10.5508 67.879 10.8012C67.708 11.0518 67.6225 11.342 67.6225 11.672C67.6225 12.044 67.7425 12.3725 67.9825 12.6575C68.2225 12.9425 68.5855 13.1615 69.0715 13.3145L71.533 14.093C72.607 14.432 73.4118 14.909 73.9473 15.524C74.4827 16.139 74.7505 16.895 74.7505 17.792C74.7505 18.557 74.5517 19.235 74.1543 19.826C73.7568 20.417 73.2085 20.8798 72.5095 21.2142C71.8105 21.5487 70.999 21.716 70.075 21.716ZM76.285 21.5V11.717H78.5125V13.643L78.328 13.301C78.559 12.704 78.934 12.2548 79.453 11.9532C79.972 11.6518 80.578 11.501 81.271 11.501C82 11.501 82.642 11.657 83.197 11.969C83.752 12.281 84.1863 12.7145 84.4998 13.2695C84.8133 13.8245 84.97 14.4679 84.97 15.1996V21.5H82.6075V15.758C82.6075 15.323 82.525 14.951 82.36 14.642C82.195 14.333 81.9636 14.0923 81.6657 13.9198C81.3679 13.7473 81.0252 13.661 80.6375 13.661C80.2498 13.661 79.9045 13.7473 79.6015 13.9198C79.2985 14.0923 79.0638 14.3338 78.8973 14.6443C78.7308 14.9548 78.6475 15.326 78.6475 15.758V21.5H76.285ZM89.488 21.716C88.804 21.716 88.2085 21.6013 87.7015 21.3717C87.1945 21.1423 86.803 20.8168 86.527 20.3953C86.251 19.9737 86.113 19.4765 86.113 18.9035C86.113 18.3635 86.2345 17.882 86.4775 17.459C86.7205 17.036 87.0948 16.6805 87.6003 16.3925C88.1058 16.1045 88.7395 15.9005 89.5015 15.7805L92.701 15.2585V17.0495L89.947 17.531C89.485 17.615 89.1393 17.7628 88.9098 17.9742C88.6803 18.1857 88.5655 18.4685 88.5655 18.8225C88.5655 19.1555 88.6938 19.4225 88.9503 19.6235C89.2068 19.8245 89.5285 19.925 89.9155 19.925C90.4135 19.925 90.85 19.8178 91.225 19.6033C91.6 19.3888 91.8918 19.0978 92.1003 18.7303C92.3088 18.3628 92.413 17.957 92.413 17.513V14.984C92.413 14.561 92.2503 14.21 91.9248 13.931C91.5993 13.652 91.1635 13.5125 90.6175 13.5125C90.1105 13.5125 89.6643 13.6483 89.2788 13.9198C88.8933 14.1913 88.6105 14.5475 88.4305 14.9885L86.5045 14.0525C86.6935 13.5365 86.9943 13.088 87.4068 12.707C87.8193 12.326 88.309 12.0297 88.876 11.8183C89.443 11.6068 90.055 11.501 90.712 11.501C91.51 11.501 92.2158 11.648 92.8293 11.942C93.4427 12.236 93.9205 12.644 94.2625 13.166C94.6045 13.688 94.7755 14.294 94.7755 14.984V21.5H92.548V19.8305L93.0565 19.799C92.7985 20.213 92.4947 20.5625 92.1453 20.8475C91.7958 21.1325 91.3998 21.3485 90.9572 21.4955C90.5147 21.6425 90.025 21.716 89.488 21.716ZM96.499 25.1V11.717H98.7265V13.661L98.497 13.1615C98.836 12.6395 99.295 12.2323 99.874 11.9397C100.453 11.6473 101.116 11.501 101.863 11.501C102.793 11.501 103.631 11.7268 104.376 12.1782C105.122 12.6297 105.713 13.2402 106.149 14.0098C106.586 14.7793 106.804 15.6455 106.804 16.6085C106.804 17.5595 106.588 18.4228 106.156 19.1982C105.724 19.9738 105.135 20.5873 104.39 21.0388C103.644 21.4903 102.797 21.716 101.849 21.716C101.138 21.716 100.486 21.5765 99.892 21.2975C99.298 21.0185 98.8285 20.612 98.4835 20.078L98.8615 19.61V25.1H96.499ZM101.588 19.556C102.128 19.556 102.606 19.43 103.022 19.178C103.437 18.926 103.763 18.5772 103.998 18.1318C104.234 17.6862 104.351 17.1785 104.351 16.6085C104.351 16.0355 104.234 15.5293 103.998 15.0898C103.763 14.6503 103.437 14.3023 103.022 14.0458C102.606 13.7893 102.128 13.661 101.588 13.661C101.066 13.661 100.598 13.787 100.184 14.039C99.7705 14.291 99.4465 14.6397 99.2125 15.0852C98.9785 15.5308 98.8615 16.0385 98.8615 16.6085C98.8615 17.1785 98.9785 17.6862 99.2125 18.1318C99.4465 18.5772 99.7705 18.926 100.184 19.178C100.598 19.43 101.066 19.556 101.588 19.556ZM108.343 21.5V8.09H110.795V19.34H116.533V21.5H108.343ZM122.257 21.716C121.3 21.716 120.429 21.4948 119.645 21.0522C118.86 20.6098 118.236 20.003 117.771 19.232C117.306 18.461 117.073 17.585 117.073 16.604C117.073 15.617 117.305 14.741 117.768 13.976C118.232 13.211 118.855 12.6072 119.638 12.1647C120.421 11.7223 121.294 11.501 122.257 11.501C123.22 11.501 124.091 11.7215 124.869 12.1625C125.648 12.6035 126.268 13.2065 126.73 13.9715C127.192 14.7365 127.423 15.614 127.423 16.604C127.423 17.588 127.19 18.4655 126.723 19.2365C126.257 20.0075 125.634 20.6135 124.856 21.0545C124.077 21.4955 123.211 21.716 122.257 21.716ZM122.257 19.556C122.788 19.556 123.256 19.43 123.661 19.178C124.066 18.926 124.386 18.5765 124.62 18.1295C124.854 17.6825 124.971 17.174 124.971 16.604C124.971 16.034 124.854 15.5293 124.62 15.0898C124.386 14.6503 124.066 14.3023 123.661 14.0458C123.256 13.7893 122.788 13.661 122.257 13.661C121.726 13.661 121.256 13.7893 120.846 14.0458C120.437 14.3023 120.114 14.6503 119.879 15.0898C119.643 15.5293 119.526 16.034 119.526 16.604C119.526 17.174 119.643 17.6825 119.879 18.1295C120.114 18.5765 120.437 18.926 120.846 19.178C121.256 19.43 121.726 19.556 122.257 19.556ZM133.476 21.716C132.501 21.716 131.628 21.4918 130.859 21.0433C130.089 20.5948 129.48 19.9827 129.032 19.2072C128.583 18.4317 128.359 17.5595 128.359 16.5905C128.359 15.6215 128.581 14.7522 129.025 13.9827C129.469 13.2132 130.078 12.6072 130.852 12.1647C131.626 11.7223 132.501 11.501 133.476 11.501C134.175 11.501 134.824 11.6225 135.424 11.8655C136.024 12.1085 136.542 12.4445 136.977 12.8735C137.412 13.3025 137.727 13.8065 137.922 14.3855L135.861 15.299C135.675 14.801 135.369 14.4035 134.945 14.1065C134.52 13.8095 134.031 13.661 133.476 13.661C132.966 13.661 132.51 13.7863 132.108 14.0368C131.706 14.2872 131.389 14.6352 131.158 15.0808C130.927 15.5263 130.812 16.0355 130.812 16.6085C130.812 17.1785 130.927 17.6862 131.158 18.1318C131.389 18.5772 131.706 18.926 132.108 19.178C132.51 19.43 132.966 19.556 133.476 19.556C134.04 19.556 134.531 19.4075 134.949 19.1105C135.368 18.8135 135.672 18.413 135.861 17.909L137.922 18.845C137.736 19.394 137.425 19.886 136.99 20.321C136.555 20.756 136.038 21.0973 135.438 21.3448C134.838 21.5923 134.184 21.716 133.476 21.716ZM142.192 21.716C141.508 21.716 140.913 21.6013 140.406 21.3717C139.899 21.1423 139.507 20.8168 139.231 20.3953C138.955 19.9737 138.817 19.4765 138.817 18.9035C138.817 18.3635 138.939 17.882 139.182 17.459C139.425 17.036 139.799 16.6805 140.304 16.3925C140.81 16.1045 141.444 15.9005 142.206 15.7805L145.405 15.2585V17.0495L142.651 17.531C142.189 17.615 141.843 17.7628 141.614 17.9742C141.384 18.1857 141.27 18.4685 141.27 18.8225C141.27 19.1555 141.398 19.4225 141.654 19.6235C141.911 19.8245 142.233 19.925 142.62 19.925C143.118 19.925 143.554 19.8178 143.929 19.6033C144.304 19.3888 144.596 19.0978 144.804 18.7303C145.013 18.3628 145.117 17.957 145.117 17.513V14.984C145.117 14.561 144.954 14.21 144.629 13.931C144.303 13.652 143.868 13.5125 143.322 13.5125C142.815 13.5125 142.368 13.6483 141.983 13.9198C141.597 14.1913 141.315 14.5475 141.135 14.9885L139.209 14.0525C139.398 13.5365 139.698 13.088 140.111 12.707C140.523 12.326 141.013 12.0297 141.58 11.8183C142.147 11.6068 142.759 11.501 143.416 11.501C144.214 11.501 144.92 11.648 145.533 11.942C146.147 12.236 146.625 12.644 146.967 13.166C147.309 13.688 147.48 14.294 147.48 14.984V21.5H145.252V19.8305L145.761 19.799C145.503 20.213 145.199 20.5625 144.849 20.8475C144.5 21.1325 144.104 21.3485 143.661 21.4955C143.219 21.6425 142.729 21.716 142.192 21.716ZM153.496 21.608C152.389 21.608 151.532 21.3043 150.924 20.6968C150.317 20.0892 150.013 19.2365 150.013 18.1385V13.8095H148.325V11.717H148.505C148.985 11.717 149.357 11.5887 149.619 11.3322C149.882 11.0757 150.013 10.7075 150.013 10.2275V9.485H152.375V11.717H154.634V13.8095H152.375V18.0035C152.375 18.3365 152.432 18.617 152.546 18.845C152.66 19.073 152.841 19.2455 153.089 19.3625C153.336 19.4795 153.649 19.538 154.027 19.538C154.114 19.538 154.214 19.532 154.328 19.52C154.442 19.508 154.556 19.496 154.67 19.484V21.5C154.499 21.527 154.306 21.5517 154.09 21.5742C153.874 21.5968 153.676 21.608 153.496 21.608ZM160.566 21.716C159.558 21.716 158.675 21.488 157.917 21.032C157.16 20.576 156.571 19.9595 156.151 19.1825C155.731 18.4055 155.521 17.54 155.521 16.586C155.521 15.605 155.736 14.7327 156.167 13.9693C156.597 13.2058 157.179 12.6035 157.913 12.1625C158.646 11.7215 159.474 11.501 160.395 11.501C161.154 11.501 161.826 11.6255 162.413 11.8745C162.999 12.1235 163.496 12.4693 163.902 12.9118C164.309 13.3542 164.619 13.862 164.832 14.435C165.045 15.008 165.151 15.623 165.151 16.28C165.151 16.454 165.143 16.6295 165.126 16.8065C165.11 16.9835 165.081 17.141 165.039 17.279H157.479V15.479H163.698L162.577 16.316C162.694 15.764 162.671 15.272 162.507 14.84C162.344 14.408 162.078 14.066 161.711 13.814C161.343 13.562 160.905 13.436 160.395 13.436C159.894 13.436 159.453 13.5605 159.074 13.8095C158.694 14.0585 158.406 14.4192 158.208 14.8917C158.01 15.3643 157.932 15.935 157.974 16.604C157.923 17.21 158.003 17.7418 158.214 18.1992C158.426 18.6568 158.738 19.0123 159.15 19.2658C159.563 19.5193 160.044 19.646 160.593 19.646C161.13 19.646 161.586 19.532 161.963 19.304C162.339 19.076 162.637 18.773 162.856 18.395L164.764 19.3175C164.572 19.7855 164.271 20.2003 163.862 20.5618C163.452 20.9233 162.968 21.206 162.408 21.41C161.849 21.614 161.235 21.716 160.566 21.716Z" fill="#0F172A"/>
<path d="M69.1367 31.6992C69.1003 31.3581 68.9466 31.0924 68.6758 30.9023C68.4076 30.7122 68.0586 30.6172 67.6289 30.6172C67.3268 30.6172 67.0677 30.6628 66.8516 30.7539C66.6354 30.8451 66.4701 30.9687 66.3555 31.125C66.2409 31.2812 66.1823 31.4596 66.1797 31.6602C66.1797 31.8268 66.2174 31.9714 66.293 32.0937C66.3711 32.2161 66.4766 32.3203 66.6094 32.4062C66.7422 32.4896 66.8893 32.5599 67.0508 32.6172C67.2122 32.6745 67.375 32.7227 67.5391 32.7617L68.2891 32.9492C68.5911 33.0195 68.8815 33.1146 69.1602 33.2344C69.4414 33.3542 69.6927 33.5052 69.9141 33.6875C70.138 33.8698 70.3151 34.0898 70.4453 34.3477C70.5755 34.6055 70.6406 34.9076 70.6406 35.2539C70.6406 35.7227 70.5208 36.1354 70.2813 36.4922C70.0417 36.8464 69.6953 37.1237 69.2422 37.3242C68.7917 37.5221 68.2461 37.6211 67.6055 37.6211C66.9831 37.6211 66.4427 37.5247 65.9844 37.332C65.5286 37.1393 65.1719 36.8581 64.9141 36.4883C64.6589 36.1185 64.5208 35.668 64.5 35.1367H65.9258C65.9466 35.4154 66.0326 35.6471 66.1836 35.832C66.3346 36.0169 66.5313 36.1549 66.7734 36.2461C67.0182 36.3372 67.2917 36.3828 67.5938 36.3828C67.9089 36.3828 68.1849 36.3359 68.4219 36.2422C68.6615 36.1458 68.849 36.013 68.9844 35.8437C69.1198 35.6719 69.1888 35.4714 69.1914 35.2422C69.1888 35.0339 69.1276 34.862 69.0078 34.7266C68.888 34.5885 68.7201 34.474 68.5039 34.3828C68.2904 34.2891 68.0404 34.2057 67.7539 34.1328L66.8438 33.8984C66.1849 33.7292 65.6641 33.4727 65.2813 33.1289C64.901 32.7826 64.7109 32.3229 64.7109 31.75C64.7109 31.2786 64.8385 30.8659 65.0938 30.5117C65.3516 30.1576 65.7018 29.8828 66.1445 29.6875C66.5872 29.4896 67.0885 29.3906 67.6484 29.3906C68.2161 29.3906 68.7135 29.4896 69.1406 29.6875C69.5703 29.8828 69.9076 30.1549 70.1523 30.5039C70.3971 30.8503 70.5234 31.2487 70.5312 31.6992H69.1367ZM71.8811 30.7148V29.5H78.2639V30.7148H75.7912V37.5H74.3537V30.7148H71.8811ZM84.8373 29.5H86.2865V34.7266C86.2865 35.2995 86.1511 35.8034 85.8803 36.2383C85.612 36.6732 85.2344 37.013 84.7475 37.2578C84.2605 37.5 83.6915 37.6211 83.0404 37.6211C82.3868 37.6211 81.8165 37.5 81.3295 37.2578C80.8425 37.013 80.4649 36.6732 80.1967 36.2383C79.9285 35.8034 79.7943 35.2995 79.7943 34.7266V29.5H81.2436V34.6055C81.2436 34.9388 81.3165 35.2357 81.4623 35.4961C81.6107 35.7565 81.8191 35.9609 82.0873 36.1094C82.3555 36.2552 82.6732 36.3281 83.0404 36.3281C83.4076 36.3281 83.7253 36.2552 83.9936 36.1094C84.2644 35.9609 84.4727 35.7565 84.6186 35.4961C84.7644 35.2357 84.8373 34.9388 84.8373 34.6055V29.5ZM90.8727 37.5H88.1617V29.5H90.9273C91.7216 29.5 92.4039 29.6602 92.9742 29.9805C93.5471 30.2982 93.9872 30.7552 94.2945 31.3516C94.6018 31.9479 94.7555 32.6615 94.7555 33.4922C94.7555 34.3255 94.6005 35.0417 94.2906 35.6406C93.9833 36.2396 93.5393 36.6992 92.9586 37.0195C92.3805 37.3398 91.6852 37.5 90.8727 37.5ZM89.6109 36.2461H90.8023C91.3596 36.2461 91.8245 36.1445 92.1969 35.9414C92.5693 35.7357 92.8492 35.4297 93.0367 35.0234C93.2242 34.6146 93.318 34.1042 93.318 33.4922C93.318 32.8802 93.2242 32.3724 93.0367 31.9687C92.8492 31.5625 92.5719 31.2591 92.2047 31.0586C91.8401 30.8555 91.387 30.7539 90.8453 30.7539H89.6109V36.2461ZM96.4324 37.5V29.5H101.636V30.7148H97.8816V32.8867H101.366V34.1016H97.8816V36.2852H101.667V37.5H96.4324ZM109.988 29.5V37.5H108.699L104.93 32.0508H104.863V37.5H103.414V29.5H104.711L108.477 34.9531H108.547V29.5H109.988ZM111.516 30.7148V29.5H117.899V30.7148H115.426V37.5H113.988V30.7148H111.516ZM129.606 33.5C129.606 34.362 129.445 35.1003 129.122 35.7148C128.801 36.3268 128.364 36.7956 127.809 37.1211C127.257 37.4466 126.631 37.6094 125.93 37.6094C125.23 37.6094 124.602 37.4466 124.047 37.1211C123.495 36.793 123.058 36.3229 122.735 35.7109C122.415 35.0964 122.254 34.3594 122.254 33.5C122.254 32.638 122.415 31.901 122.735 31.2891C123.058 30.6745 123.495 30.2044 124.047 29.8789C124.602 29.5534 125.23 29.3906 125.93 29.3906C126.631 29.3906 127.257 29.5534 127.809 29.8789C128.364 30.2044 128.801 30.6745 129.122 31.2891C129.445 31.901 129.606 32.638 129.606 33.5ZM128.149 33.5C128.149 32.8932 128.054 32.3815 127.864 31.9648C127.676 31.5456 127.416 31.2292 127.083 31.0156C126.749 30.7995 126.365 30.6914 125.93 30.6914C125.495 30.6914 125.111 30.7995 124.778 31.0156C124.445 31.2292 124.183 31.5456 123.993 31.9648C123.805 32.3815 123.712 32.8932 123.712 33.5C123.712 34.1068 123.805 34.6198 123.993 35.0391C124.183 35.4557 124.445 35.7721 124.778 35.9883C125.111 36.2018 125.495 36.3086 125.93 36.3086C126.365 36.3086 126.749 36.2018 127.083 35.9883C127.416 35.7721 127.676 35.4557 127.864 35.0391C128.054 34.6198 128.149 34.1068 128.149 33.5ZM135.624 31.6992C135.587 31.3581 135.434 31.0924 135.163 30.9023C134.895 30.7122 134.546 30.6172 134.116 30.6172C133.814 30.6172 133.555 30.6628 133.339 30.7539C133.123 30.8451 132.957 30.9687 132.843 31.125C132.728 31.2812 132.669 31.4596 132.667 31.6602C132.667 31.8268 132.705 31.9714 132.78 32.0937C132.858 32.2161 132.964 32.3203 133.096 32.4062C133.229 32.4896 133.376 32.5599 133.538 32.6172C133.699 32.6745 133.862 32.7227 134.026 32.7617L134.776 32.9492C135.078 33.0195 135.369 33.1146 135.647 33.2344C135.929 33.3542 136.18 33.5052 136.401 33.6875C136.625 33.8698 136.802 34.0898 136.932 34.3477C137.063 34.6055 137.128 34.9076 137.128 35.2539C137.128 35.7227 137.008 36.1354 136.768 36.4922C136.529 36.8464 136.182 37.1237 135.729 37.3242C135.279 37.5221 134.733 37.6211 134.093 37.6211C133.47 37.6211 132.93 37.5247 132.471 37.332C132.016 37.1393 131.659 36.8581 131.401 36.4883C131.146 36.1185 131.008 35.668 130.987 35.1367H132.413C132.434 35.4154 132.52 35.6471 132.671 35.832C132.822 36.0169 133.018 36.1549 133.261 36.2461C133.505 36.3372 133.779 36.3828 134.081 36.3828C134.396 36.3828 134.672 36.3359 134.909 36.2422C135.149 36.1458 135.336 36.013 135.471 35.8437C135.607 35.6719 135.676 35.4714 135.679 35.2422C135.676 35.0339 135.615 34.862 135.495 34.7266C135.375 34.5885 135.207 34.474 134.991 34.3828C134.777 34.2891 134.527 34.2057 134.241 34.1328L133.331 33.8984C132.672 33.7292 132.151 33.4727 131.768 33.1289C131.388 32.7826 131.198 32.3229 131.198 31.75C131.198 31.2786 131.326 30.8659 131.581 30.5117C131.839 30.1576 132.189 29.8828 132.632 29.6875C133.074 29.4896 133.576 29.3906 134.136 29.3906C134.703 29.3906 135.201 29.4896 135.628 29.6875C136.057 29.8828 136.395 30.1549 136.639 30.5039C136.884 30.8503 137.011 31.2487 137.018 31.6992H135.624Z" fill="#4F46E5"/>
<defs>
<filter id="filter0_dd_1_5" x="0" y="0" width="64" height="64" filterUnits="userSpaceOnUse" color-interpolation-filters="sRGB">
<feFlood flood-opacity="0" result="BackgroundImageFix"/>
<feColorMatrix in="SourceAlpha" type="matrix" values="0 0 0 0 0 0 0 0 0 0 0 0 0 0 0 0 0 0 127 0" result="hardAlpha"/>
<feMorphology radius="4" operator="erode" in="SourceAlpha" result="effect1_dropShadow_1_5"/>
<feOffset dy="4"/>
<feGaussianBlur stdDeviation="3"/>
<feComposite in2="hardAlpha" operator="out"/>
<feColorMatrix type="matrix" values="0 0 0 0 0.309804 0 0 0 0 0.27451 0 0 0 0 0.898039 0 0 0 0.2 0"/>
<feBlend mode="normal" in2="BackgroundImageFix" result="effect1_dropShadow_1_5"/>
<feColorMatrix in="SourceAlpha" type="matrix" values="0 0 0 0 0 0 0 0 0 0 0 0 0 0 0 0 0 0 127 0" result="hardAlpha"/>
<feMorphology radius="3" operator="erode" in="SourceAlpha" result="effect2_dropShadow_1_5"/>
<feOffset dy="10"/>
<feGaussianBlur stdDeviation="7.5"/>
<feComposite in2="hardAlpha" operator="out"/>
<feColorMatrix type="matrix" values="0 0 0 0 0.309804 0 0 0 0 0.27451 0 0 0 0 0.898039 0 0 0 0.2 0"/>
<feBlend mode="normal" in2="effect1_dropShadow_1_5" result="effect2_dropShadow_1_5"/>
<feBlend mode="normal" in="SourceGraphic" in2="effect2_dropShadow_1_5" result="shape"/>
</filter>
<linearGradient id="paint0_linear_1_5" x1="12" y1="2" x2="52" y2="42" gradientUnits="userSpaceOnUse">
<stop stop-color="#4F46E5"/>
<stop offset="1" stop-color="#4338CA"/>
</linearGradient>
</defs>
</svg>
