<svg width="14" height="17" viewBox="0 0 14 17" fill="none" xmlns="http://www.w3.org/2000/svg">
<path d="M5.94999 14.45H7.64999V10.9012L9.00999 12.2612L10.2 11.05L6.79999 7.64999L3.4 11.05L4.61124 12.24L5.94999 10.9012V14.45ZM1.7 17C1.2325 17 0.832291 16.8335 0.499374 16.5006C0.166458 16.1677 0 15.7675 0 15.3V1.7C0 1.2325 0.166458 0.832291 0.499374 0.499374C0.832291 0.166458 1.2325 0 1.7 0H8.49999L13.6 5.09999V15.3C13.6 15.7675 13.4335 16.1677 13.1006 16.5006C12.7677 16.8335 12.3675 17 11.9 17H1.7ZM7.64999 5.94999V1.7H1.7V15.3H11.9V5.94999H7.64999ZM1.7 1.7V5.94999V1.7V5.94999V15.3V1.7Z" fill="#475569"/>
</svg>
