<svg width="17" height="17" viewBox="0 0 17 17" fill="none" xmlns="http://www.w3.org/2000/svg">
<path d="M11.3333 17L5.66667 15.0167L1.275 16.7167C0.960185 16.8426 0.668982 16.8072 0.401389 16.6104C0.133796 16.4137 0 16.15 0 15.8194V2.59722C0 2.39259 0.0590278 2.21157 0.177083 2.05417C0.295139 1.89676 0.456481 1.7787 0.661111 1.7L5.66667 0L11.3333 1.98333L15.725 0.283333C16.0398 0.157407 16.331 0.192824 16.5986 0.389583C16.8662 0.586343 17 0.85 17 1.18056V14.4028C17 14.6074 16.941 14.7884 16.8229 14.9458C16.7049 15.1032 16.5435 15.2213 16.3389 15.3L11.3333 17ZM10.3889 14.6861V3.63611L6.61111 2.31389V13.3639L10.3889 14.6861ZM12.2778 14.6861L15.1111 13.7417V2.55L12.2778 3.63611V14.6861ZM1.88889 14.45L4.72222 13.3639V2.31389L1.88889 3.25833V14.45ZM12.2778 3.63611V14.6861V3.63611ZM4.72222 2.31389V13.3639V2.31389Z" fill="#64748B"/>
</svg>
