<svg width="20" height="15" viewBox="0 0 20 15" fill="none" xmlns="http://www.w3.org/2000/svg">
<path d="M1.86046 14.8837C1.34884 14.8837 0.910853 14.7015 0.546512 14.3372C0.182171 13.9729 0 13.5349 0 13.0233V1.86046C0 1.34884 0.182171 0.910853 0.546512 0.546512C0.910853 0.182171 1.34884 0 1.86046 0H7.44186L9.30232 1.86046H16.7442C17.2558 1.86046 17.6938 2.04264 18.0581 2.40698C18.4225 2.77132 18.6046 3.2093 18.6046 3.72093H8.53488L6.67442 1.86046H1.86046V13.0233L4.09302 5.58139H20L17.6046 13.5581C17.4806 13.9612 17.2519 14.2829 16.9186 14.5233C16.5853 14.7636 16.2171 14.8837 15.814 14.8837H1.86046ZM3.81395 13.0233H15.814L17.4884 7.44186H5.48837L3.81395 13.0233ZM3.81395 13.0233L5.48837 7.44186L3.81395 13.0233ZM1.86046 3.72093V1.86046V3.72093Z" fill="#64748B"/>
</svg>
