<svg width="17" height="14" viewBox="0 0 17 14" fill="none" xmlns="http://www.w3.org/2000/svg">
<path d="M13.6 7.64999V5.94999H17V7.64999H13.6ZM14.62 13.6L11.9 11.56L12.92 10.2L15.64 12.24L14.62 13.6ZM12.92 3.4L11.9 2.04L14.62 0L15.64 1.36L12.92 3.4ZM2.55 12.75V9.34999H1.7C1.2325 9.34999 0.832291 9.18353 0.499374 8.85061C0.166458 8.5177 0 8.11749 0 7.64999V5.94999C0 5.48249 0.166458 5.08229 0.499374 4.74937C0.832291 4.41645 1.2325 4.24999 1.7 4.24999H5.09999L9.34999 1.7V11.9L5.09999 9.34999H4.24999V12.75H2.55ZM7.64999 8.88249V4.71749L5.56749 5.94999H1.7V7.64999H5.56749L7.64999 8.88249ZM10.2 9.64749V3.9525C10.5825 4.29249 10.8906 4.70687 11.1244 5.19562C11.3581 5.68437 11.475 6.21916 11.475 6.79999C11.475 7.38082 11.3581 7.91562 11.1244 8.40436C10.8906 8.89311 10.5825 9.30749 10.2 9.64749Z" fill="#EA580C"/>
</svg>
