<svg width="17" height="17" viewBox="0 0 17 17" fill="none" xmlns="http://www.w3.org/2000/svg">
<path d="M7.30999 12.41L13.3025 6.41749L12.1125 5.22749L7.30999 10.03L4.88749 7.60749L3.6975 8.79749L7.30999 12.41ZM8.49999 17C7.32416 17 6.21916 16.7769 5.18499 16.3306C4.15083 15.8844 3.25125 15.2787 2.48625 14.5137C1.72125 13.7487 1.11562 12.8492 0.669374 11.815C0.223125 10.7808 0 9.67582 0 8.49999C0 7.32416 0.223125 6.21916 0.669374 5.18499C1.11562 4.15083 1.72125 3.25125 2.48625 2.48625C3.25125 1.72125 4.15083 1.11562 5.18499 0.669374C6.21916 0.223125 7.32416 0 8.49999 0C9.67582 0 10.7808 0.223125 11.815 0.669374C12.8492 1.11562 13.7487 1.72125 14.5137 2.48625C15.2787 3.25125 15.8844 4.15083 16.3306 5.18499C16.7769 6.21916 17 7.32416 17 8.49999C17 9.67582 16.7769 10.7808 16.3306 11.815C15.8844 12.8492 15.2787 13.7487 14.5137 14.5137C13.7487 15.2787 12.8492 15.8844 11.815 16.3306C10.7808 16.7769 9.67582 17 8.49999 17ZM8.49999 15.3C10.3983 15.3 12.0062 14.6412 13.3237 13.3237C14.6412 12.0062 15.3 10.3983 15.3 8.49999C15.3 6.60166 14.6412 4.99374 13.3237 3.67625C12.0062 2.35875 10.3983 1.7 8.49999 1.7C6.60166 1.7 4.99374 2.35875 3.67625 3.67625C2.35875 4.99374 1.7 6.60166 1.7 8.49999C1.7 10.3983 2.35875 12.0062 3.67625 13.3237C4.99374 14.6412 6.60166 15.3 8.49999 15.3Z" fill="#059669"/>
</svg>
