<svg width="15" height="19" viewBox="0 0 15 19" fill="none" xmlns="http://www.w3.org/2000/svg">
<path d="M3.28125 18.75C2.375 18.75 1.60156 18.4297 0.960937 17.7891C0.320312 17.1484 0 16.375 0 15.4687V3.28125C0 2.375 0.320312 1.60156 0.960937 0.960937C1.60156 0.320312 2.375 0 3.28125 0H15V14.0625C14.6094 14.0625 14.2773 14.1992 14.0039 14.4727C13.7305 14.7461 13.5937 15.0781 13.5937 15.4687C13.5937 15.8594 13.7305 16.1914 14.0039 16.4648C14.2773 16.7383 14.6094 16.875 15 16.875V18.75H3.28125ZM1.875 12.4922C2.09375 12.3828 2.32031 12.3047 2.55469 12.2578C2.78906 12.2109 3.03125 12.1875 3.28125 12.1875H3.75V1.875H3.28125C2.89062 1.875 2.55859 2.01172 2.28516 2.28516C2.01172 2.55859 1.875 2.89062 1.875 3.28125V12.4922ZM5.625 12.1875H13.125V1.875H5.625V12.1875ZM1.875 12.4922V1.875V12.4922ZM3.28125 16.875H12.0234C11.9297 16.6562 11.8555 16.4336 11.8008 16.207C11.7461 15.9805 11.7187 15.7344 11.7187 15.4687C11.7187 15.2187 11.7422 14.9766 11.7891 14.7422C11.8359 14.5078 11.9141 14.2812 12.0234 14.0625H3.28125C2.875 14.0625 2.53906 14.1992 2.27344 14.4727C2.00781 14.7461 1.875 15.0781 1.875 15.4687C1.875 15.875 2.00781 16.2109 2.27344 16.4766C2.53906 16.7422 2.875 16.875 3.28125 16.875Z" fill="#64748B"/>
</svg>
