<svg width="17" height="19" viewBox="0 0 17 19" fill="none" xmlns="http://www.w3.org/2000/svg">
<path d="M1.88889 18.8889C1.36944 18.8889 0.924768 18.7039 0.554861 18.334C0.184954 17.9641 0 17.5194 0 17V3.77778C0 3.25833 0.184954 2.81366 0.554861 2.44375C0.924768 2.07384 1.36944 1.88889 1.88889 1.88889H2.83333V0H4.72222V1.88889H12.2778V0H14.1667V1.88889H15.1111C15.6306 1.88889 16.0752 2.07384 16.4451 2.44375C16.815 2.81366 17 3.25833 17 3.77778V17C17 17.5194 16.815 17.9641 16.4451 18.334C16.0752 18.7039 15.6306 18.8889 15.1111 18.8889H1.88889ZM1.88889 17H15.1111V7.55556H1.88889V17ZM1.88889 5.66667H15.1111V3.77778H1.88889V5.66667ZM1.88889 5.66667V3.77778V5.66667ZM8.5 11.3333C8.23241 11.3333 8.0081 11.2428 7.82708 11.0618C7.64606 10.8808 7.55556 10.6565 7.55556 10.3889C7.55556 10.1213 7.64606 9.89699 7.82708 9.71597C8.0081 9.53495 8.23241 9.44444 8.5 9.44444C8.76759 9.44444 8.9919 9.53495 9.17292 9.71597C9.35394 9.89699 9.44444 10.1213 9.44444 10.3889C9.44444 10.6565 9.35394 10.8808 9.17292 11.0618C8.9919 11.2428 8.76759 11.3333 8.5 11.3333ZM4.72222 11.3333C4.45463 11.3333 4.23032 11.2428 4.04931 11.0618C3.86829 10.8808 3.77778 10.6565 3.77778 10.3889C3.77778 10.1213 3.86829 9.89699 4.04931 9.71597C4.23032 9.53495 4.45463 9.44444 4.72222 9.44444C4.98981 9.44444 5.21412 9.53495 5.39514 9.71597C5.57616 9.89699 5.66667 10.1213 5.66667 10.3889C5.66667 10.6565 5.57616 10.8808 5.39514 11.0618C5.21412 11.2428 4.98981 11.3333 4.72222 11.3333ZM12.2778 11.3333C12.0102 11.3333 11.7859 11.2428 11.6049 11.0618C11.4238 10.8808 11.3333 10.6565 11.3333 10.3889C11.3333 10.1213 11.4238 9.89699 11.6049 9.71597C11.7859 9.53495 12.0102 9.44444 12.2778 9.44444C12.5454 9.44444 12.7697 9.53495 12.9507 9.71597C13.1317 9.89699 13.2222 10.1213 13.2222 10.3889C13.2222 10.6565 13.1317 10.8808 12.9507 11.0618C12.7697 11.2428 12.5454 11.3333 12.2778 11.3333ZM8.5 15.1111C8.23241 15.1111 8.0081 15.0206 7.82708 14.8396C7.64606 14.6586 7.55556 14.4343 7.55556 14.1667C7.55556 13.8991 7.64606 13.6748 7.82708 13.4938C8.0081 13.3127 8.23241 13.2222 8.5 13.2222C8.76759 13.2222 8.9919 13.3127 9.17292 13.4938C9.35394 13.6748 9.44444 13.8991 9.44444 14.1667C9.44444 14.4343 9.35394 14.6586 9.17292 14.8396C8.9919 15.0206 8.76759 15.1111 8.5 15.1111ZM4.72222 15.1111C4.45463 15.1111 4.23032 15.0206 4.04931 14.8396C3.86829 14.6586 3.77778 14.4343 3.77778 14.1667C3.77778 13.8991 3.86829 13.6748 4.04931 13.4938C4.23032 13.3127 4.45463 13.2222 4.72222 13.2222C4.98981 13.2222 5.21412 13.3127 5.39514 13.4938C5.57616 13.6748 5.66667 13.8991 5.66667 14.1667C5.66667 14.4343 5.57616 14.6586 5.39514 14.8396C5.21412 15.0206 4.98981 15.1111 4.72222 15.1111ZM12.2778 15.1111C12.0102 15.1111 11.7859 15.0206 11.6049 14.8396C11.4238 14.6586 11.3333 14.4343 11.3333 14.1667C11.3333 13.8991 11.4238 13.6748 11.6049 13.4938C11.7859 13.3127 12.0102 13.2222 12.2778 13.2222C12.5454 13.2222 12.7697 13.3127 12.9507 13.4938C13.1317 13.6748 13.2222 13.8991 13.2222 14.1667C13.2222 14.4343 13.1317 14.6586 12.9507 14.8396C12.7697 15.0206 12.5454 15.1111 12.2778 15.1111Z" fill="#64748B"/>
</svg>
