<svg width="200" height="200" viewBox="0 0 200 200" xmlns="http://www.w3.org/2000/svg">
  <rect width="200" height="200" rx="44" fill="#F5F5FA" stroke="#E2E2F0" stroke-width="1"/>
  <line x1="66" y1="38" x2="100" y2="38" stroke="rgba(78,70,229,0.3)" stroke-width="2.5"/>
  <line x1="100" y1="38" x2="134" y2="38" stroke="rgba(78,70,229,0.3)" stroke-width="2.5"/>
  <line x1="66" y1="38" x2="66" y2="72" stroke="rgba(78,70,229,0.3)" stroke-width="2.5"/>
  <line x1="66" y1="72" x2="66" y2="106" stroke="rgba(78,70,229,0.3)" stroke-width="2.5"/>
  <line x1="66" y1="106" x2="100" y2="106" stroke="rgba(78,70,229,0.3)" stroke-width="2.5"/>
  <line x1="100" y1="106" x2="134" y2="106" stroke="rgba(78,70,229,0.3)" stroke-width="2.5"/>
  <line x1="134" y1="106" x2="134" y2="140" stroke="rgba(78,70,229,0.3)" stroke-width="2.5"/>
  <line x1="134" y1="140" x2="134" y2="174" stroke="rgba(78,70,229,0.3)" stroke-width="2.5"/>
  <line x1="66" y1="174" x2="100" y2="174" stroke="rgba(78,70,229,0.3)" stroke-width="2.5"/>
  <line x1="100" y1="174" x2="134" y2="174" stroke="rgba(78,70,229,0.3)" stroke-width="2.5"/>
  <circle cx="66"  cy="38"  r="9" fill="#4E46E5"/>
  <circle cx="100" cy="38"  r="9" fill="#4E46E5"/>
  <circle cx="134" cy="38"  r="9" fill="#4E46E5"/>
  <circle cx="66"  cy="72"  r="9" fill="#4E46E5"/>
  <circle cx="66"  cy="106" r="9" fill="#4E46E5"/>
  <circle cx="100" cy="106" r="9" fill="#4E46E5"/>
  <circle cx="134" cy="106" r="9" fill="#4E46E5"/>
  <circle cx="134" cy="140" r="9" fill="#4E46E5" opacity="0.5"/>
  <circle cx="66"  cy="174" r="9" fill="#4E46E5" opacity="0.5"/>
  <circle cx="100" cy="174" r="9" fill="#4E46E5" opacity="0.5"/>
  <circle cx="134" cy="174" r="9" fill="#4E46E5" opacity="0.5"/>
</svg>
