<svg width="200" height="200" viewBox="0 0 200 200" xmlns="http://www.w3.org/2000/svg">
  <rect width="200" height="200" rx="44" fill="#4E46E5"/>
  <!-- Connection lines -->
  <line x1="66" y1="38" x2="100" y2="38" stroke="rgba(255,255,255,0.45)" stroke-width="2.5"/>
  <line x1="100" y1="38" x2="134" y2="38" stroke="rgba(255,255,255,0.45)" stroke-width="2.5"/>
  <line x1="66" y1="38" x2="66" y2="72" stroke="rgba(255,255,255,0.45)" stroke-width="2.5"/>
  <line x1="66" y1="72" x2="66" y2="106" stroke="rgba(255,255,255,0.45)" stroke-width="2.5"/>
  <line x1="66" y1="106" x2="100" y2="106" stroke="rgba(255,255,255,0.45)" stroke-width="2.5"/>
  <line x1="100" y1="106" x2="134" y2="106" stroke="rgba(255,255,255,0.45)" stroke-width="2.5"/>
  <line x1="134" y1="106" x2="134" y2="140" stroke="rgba(255,255,255,0.45)" stroke-width="2.5"/>
  <line x1="134" y1="140" x2="134" y2="174" stroke="rgba(255,255,255,0.45)" stroke-width="2.5"/>
  <line x1="66" y1="174" x2="100" y2="174" stroke="rgba(255,255,255,0.45)" stroke-width="2.5"/>
  <line x1="100" y1="174" x2="134" y2="174" stroke="rgba(255,255,255,0.45)" stroke-width="2.5"/>
  <!-- Primary dots (top S) -->
  <circle cx="66"  cy="38"  r="9" fill="white"/>
  <circle cx="100" cy="38"  r="9" fill="white"/>
  <circle cx="134" cy="38"  r="9" fill="white"/>
  <circle cx="66"  cy="72"  r="9" fill="white"/>
  <circle cx="66"  cy="106" r="9" fill="white"/>
  <circle cx="100" cy="106" r="9" fill="white"/>
  <circle cx="134" cy="106" r="9" fill="white"/>
  <!-- Secondary dots (bottom S) -->
  <circle cx="134" cy="140" r="9" fill="white" opacity="0.75"/>
  <circle cx="66"  cy="174" r="9" fill="white" opacity="0.75"/>
  <circle cx="100" cy="174" r="9" fill="white" opacity="0.75"/>
  <circle cx="134" cy="174" r="9" fill="white" opacity="0.75"/>
</svg>
