<svg width="200" height="200" viewBox="0 0 200 200" xmlns="http://www.w3.org/2000/svg">
  <defs>
    <linearGradient id="bg" x1="0" y1="0" x2="200" y2="200" gradientUnits="userSpaceOnUse">
      <stop offset="0%" stop-color="#7C76F5"/>
      <stop offset="100%" stop-color="#3730C4"/>
    </linearGradient>
    <linearGradient id="dotg" x1="66" y1="38" x2="134" y2="174" gradientUnits="userSpaceOnUse">
      <stop offset="0%" stop-color="white"/>
      <stop offset="100%" stop-color="#5DCAA5" stop-opacity="0.9"/>
    </linearGradient>
  </defs>
  <rect width="200" height="200" rx="44" fill="url(#bg)"/>
  <line x1="66" y1="38" x2="100" y2="38" stroke="rgba(255,255,255,0.35)" stroke-width="2.5"/>
  <line x1="100" y1="38" x2="134" y2="38" stroke="rgba(255,255,255,0.35)" stroke-width="2.5"/>
  <line x1="66" y1="38" x2="66" y2="72" stroke="rgba(255,255,255,0.35)" stroke-width="2.5"/>
  <line x1="66" y1="72" x2="66" y2="106" stroke="rgba(255,255,255,0.35)" stroke-width="2.5"/>
  <line x1="66" y1="106" x2="100" y2="106" stroke="rgba(255,255,255,0.35)" stroke-width="2.5"/>
  <line x1="100" y1="106" x2="134" y2="106" stroke="rgba(255,255,255,0.35)" stroke-width="2.5"/>
  <line x1="134" y1="106" x2="134" y2="140" stroke="rgba(255,255,255,0.35)" stroke-width="2.5"/>
  <line x1="134" y1="140" x2="134" y2="174" stroke="rgba(255,255,255,0.35)" stroke-width="2.5"/>
  <line x1="66" y1="174" x2="100" y2="174" stroke="rgba(255,255,255,0.35)" stroke-width="2.5"/>
  <line x1="100" y1="174" x2="134" y2="174" stroke="rgba(255,255,255,0.35)" stroke-width="2.5"/>
  <circle cx="66"  cy="38"  r="9" fill="url(#dotg)"/>
  <circle cx="100" cy="38"  r="9" fill="url(#dotg)"/>
  <circle cx="134" cy="38"  r="9" fill="url(#dotg)"/>
  <circle cx="66"  cy="72"  r="9" fill="url(#dotg)"/>
  <circle cx="66"  cy="106" r="9" fill="url(#dotg)"/>
  <circle cx="100" cy="106" r="9" fill="url(#dotg)"/>
  <circle cx="134" cy="106" r="9" fill="url(#dotg)"/>
  <circle cx="134" cy="140" r="9" fill="url(#dotg)" opacity="0.8"/>
  <circle cx="66"  cy="174" r="9" fill="url(#dotg)" opacity="0.8"/>
  <circle cx="100" cy="174" r="9" fill="url(#dotg)" opacity="0.8"/>
  <circle cx="134" cy="174" r="9" fill="url(#dotg)" opacity="0.8"/>
</svg>
